<svg xmlns="http://www.w3.org/2000/svg" viewBox="0 0 46.98 63.02">
  <path d="M39.56 25.34 47 29v6.7c0 4.28-.68 7.19-2 8.73s-4 2.32-7.8 2.32H9.81Q4 46.75 2 44.43C.66 42.89 0 40 0 35.7V11.06C0 6.8.66 3.91 2 2.34S6 0 9.81 0h27.34c3.85 0 6.39.77 7.76 2.29S47 6.61 47 10.62v1.05h-7.44v-5H7.35v33h32.21Z" fill="#144474" fill-rule="evenodd"></path>
  <path fill="#e25c13" fill-rule="evenodd" d="m46.98 29-16.6-8h16.6v8z"></path>
  <path fill="#144474" fill-rule="evenodd" d="M38.48 63v-9.29h7.8v1.58h-6v2.08h6V59h-6v2.3h6.1V63h-7.9zM15.15 53.71v7.54h5v-7.54H22v7.09a2.86 2.86 0 0 1-.38 1.74 1.91 1.91 0 0 1-1.5.46H15.3a1.89 1.89 0 0 1-1.49-.46 2.86 2.86 0 0 1-.39-1.74v-7.09ZM7.92 55.38H2.36v5.87h5.56v-2.06h-.83v-1.58h2.56v3.19a2.79 2.79 0 0 1-.39 1.74 1.92 1.92 0 0 1-1.51.46H2.47A1.89 1.89 0 0 1 1 62.54a2.79 2.79 0 0 1-.4-1.74v-4.89a2.78 2.78 0 0 1 .4-1.73 1.91 1.91 0 0 1 1.5-.46h5.25a2 2 0 0 1 1.5.45 2.56 2.56 0 0 1 .4 1.66V56H7.92v-.62ZM27.73 61.25H30a3.89 3.89 0 0 0 2.6-.69 3 3 0 0 0 .76-2.3 3.22 3.22 0 0 0-.63-2.16 2.37 2.37 0 0 0-1.88-.73h-3.12ZM26 63v-9.3h4.91a4.24 4.24 0 0 1 3.24 1.2 4.77 4.77 0 0 1 1.13 3.39 6.13 6.13 0 0 1-.44 2.35 3.88 3.88 0 0 1-1.25 1.64 3.33 3.33 0 0 1-1.23.55 9.27 9.27 0 0 1-1.9.17Z"></path>
</svg>