<?xml version="1.0" encoding="UTF-8" standalone="no"?>
<svg
   viewBox="0 0 46.98 46.979999"
   version="1.1"
   id="svg873"
   width="46.98"
   height="46.98"
   xmlns="http://www.w3.org/2000/svg"
   xmlns:svg="http://www.w3.org/2000/svg">
  <defs
     id="defs877" />
  <g
     id="g1327"
     transform="translate(0,0.11499977)">
    <path
       d="M 39.56,25.34 47,29 v 6.7 c 0,4.28 -0.68,7.19 -2,8.73 -1.32,1.54 -4,2.32 -7.8,2.32 H 9.81 Q 4,46.75 2,44.43 C 0.66,42.89 0,40 0,35.7 V 11.06 C 0,6.8 0.66,3.91 2,2.34 3.34,0.77 6,0 9.81,0 H 37.15 C 41,0 43.54,0.77 44.91,2.29 46.28,3.81 47,6.61 47,10.62 v 1.05 h -7.44 v -5 H 7.35 v 33 h 32.21 z"
       fill="#144474"
       fill-rule="evenodd"
       id="path867" />
    <path
       fill="#e25c13"
       fill-rule="evenodd"
       d="m 46.98,29 -16.6,-8 h 16.6 z"
       id="path869" />
  </g>
</svg>
